<svg width="24" height="17" viewBox="0 0 24 17" fill="none" xmlns="http://www.w3.org/2000/svg">
<path d="M20.8801 16.09C21.7494 15.4786 22.4014 14.6061 22.7413 13.5991C23.0813 12.5921 23.0915 11.503 22.7705 10.4898C22.4494 9.47663 21.8139 8.59208 20.9561 7.96456C20.0983 7.33703 19.0629 6.99916 18.0001 6.99999H16.7401C16.4393 5.82787 15.8765 4.73924 15.0942 3.81607C14.3118 2.89291 13.3302 2.15925 12.2233 1.67035C11.1163 1.18144 9.9129 0.950022 8.70358 0.993511C7.49426 1.037 6.31057 1.35426 5.24161 1.92142C4.17265 2.48858 3.24628 3.29084 2.53224 4.26782C1.81821 5.2448 1.33511 6.37104 1.11932 7.56174C0.903525 8.75245 0.960665 9.97659 1.28643 11.142C1.6122 12.3074 2.19811 13.3838 3.00005 14.29" stroke="white" stroke-width="1.4" stroke-linecap="round" stroke-linejoin="round"/>
</svg>
